<svg width="25" height="25" viewBox="0 0 25 25" fill="none" xmlns="http://www.w3.org/2000/svg">
<path d="M21.416 9.64999C19.106 6.01999 15.726 3.92999 12.166 3.92999C10.386 3.92999 8.65602 4.44999 7.07602 5.41999C5.49602 6.39999 4.07602 7.82999 2.91602 9.64999C1.91602 11.22 1.91602 13.77 2.91602 15.34C5.22602 18.98 8.60602 21.06 12.166 21.06C13.946 21.06 15.676 20.54 17.256 19.57C18.836 18.59 20.256 17.16 21.416 15.34C22.416 13.78 22.416 11.22 21.416 9.64999ZM12.166 16.54C9.92602 16.54 8.12602 14.73 8.12602 12.5C8.12602 10.27 9.92602 8.45999 12.166 8.45999C14.406 8.45999 16.206 10.27 16.206 12.5C16.206 14.73 14.406 16.54 12.166 16.54Z" fill="#002C51"/>
<path d="M12.1664 9.64001C10.5964 9.64001 9.31641 10.92 9.31641 12.5C9.31641 14.07 10.5964 15.35 12.1664 15.35C13.7364 15.35 15.0264 14.07 15.0264 12.5C15.0264 10.93 13.7364 9.64001 12.1664 9.64001Z" fill="#002C51"/>
</svg>
