<svg width="25" height="25" viewBox="0 0 25 25" fill="none" xmlns="http://www.w3.org/2000/svg">
<path d="M17.166 4H7.16602C4.16602 4 2.16602 5.5 2.16602 9V16C2.16602 19.5 4.16602 21 7.16602 21H17.166C20.166 21 22.166 19.5 22.166 16V9C22.166 5.5 20.166 4 17.166 4ZM17.636 10.09L14.506 12.59C13.846 13.12 13.006 13.38 12.166 13.38C11.326 13.38 10.476 13.12 9.82602 12.59L6.69602 10.09C6.37602 9.83 6.32602 9.35 6.57602 9.03C6.83602 8.71 7.30602 8.65 7.62602 8.91L10.756 11.41C11.516 12.02 12.806 12.02 13.566 11.41L16.696 8.91C17.016 8.65 17.496 8.7 17.746 9.03C18.006 9.35 17.956 9.83 17.636 10.09Z" fill="#002C51"/>
</svg>
