<svg width="25" height="24" viewBox="0 0 25 24" fill="none" xmlns="http://www.w3.org/2000/svg">
<path d="M21.4167 9.14999C19.1067 5.51999 15.7267 3.42999 12.1667 3.42999C10.3867 3.42999 8.65675 3.94999 7.07675 4.91999C5.49675 5.89999 4.07675 7.32999 2.91675 9.14999C1.91675 10.72 1.91675 13.27 2.91675 14.84C5.22675 18.48 8.60675 20.56 12.1667 20.56C13.9467 20.56 15.6767 20.04 17.2567 19.07C18.8367 18.09 20.2567 16.66 21.4167 14.84C22.4167 13.28 22.4167 10.72 21.4167 9.14999ZM12.1667 16.04C9.92675 16.04 8.12675 14.23 8.12675 12C8.12675 9.76999 9.92675 7.95999 12.1667 7.95999C14.4067 7.95999 16.2067 9.76999 16.2067 12C16.2067 14.23 14.4067 16.04 12.1667 16.04Z" fill="#002C51"/>
<path d="M12.1667 9.14001C10.5967 9.14001 9.31665 10.42 9.31665 12C9.31665 13.57 10.5967 14.85 12.1667 14.85C13.7367 14.85 15.0267 13.57 15.0267 12C15.0267 10.43 13.7367 9.14001 12.1667 9.14001Z" fill="#002C51"/>
</svg>
