<svg width="25" height="25" viewBox="0 0 25 25" fill="none" xmlns="http://www.w3.org/2000/svg">
<path d="M3.16675 6.5H5.16675H21.1667" stroke="#A30D11" stroke-width="2" stroke-linecap="round" stroke-linejoin="round"/>
<path d="M8.16675 6.5V4.5C8.16675 3.96957 8.37746 3.46086 8.75253 3.08579C9.12761 2.71071 9.63632 2.5 10.1667 2.5H14.1667C14.6972 2.5 15.2059 2.71071 15.581 3.08579C15.956 3.46086 16.1667 3.96957 16.1667 4.5V6.5M19.1667 6.5V20.5C19.1667 21.0304 18.956 21.5391 18.581 21.9142C18.2059 22.2893 17.6972 22.5 17.1667 22.5H7.16675C6.63632 22.5 6.12761 22.2893 5.75253 21.9142C5.37746 21.5391 5.16675 21.0304 5.16675 20.5V6.5H19.1667Z" stroke="#A30D11" stroke-width="2" stroke-linecap="round" stroke-linejoin="round"/>
<path d="M10.1667 11.5V17.5" stroke="#A30D11" stroke-width="2" stroke-linecap="round" stroke-linejoin="round"/>
<path d="M14.1667 11.5V17.5" stroke="#A30D11" stroke-width="2" stroke-linecap="round" stroke-linejoin="round"/>
</svg>
